<svg xmlns="http://www.w3.org/2000/svg" width="76" height="70">
    <path fill-rule="evenodd" fill="#C8535A" d="M35.747 35.061c0 5.508-4.492 10.001-10 10.001s-10-4.493-10-10.001c0-5.507 4.492-9.999 10-9.999s10 4.492 10 9.999zm30 20c0 2.735-2.227 5-5 5-2.734 0-5-2.226-5-5 0-2.734 2.266-4.999 5-4.999s5 2.265 5 4.999zm0-40c0 2.735-2.227 5-5 5-2.734 0-5-2.226-5-5 0-2.734 2.266-4.999 5-4.999s5 2.265 5 4.999zm-15 16.446a1.21 1.21 0 0 0-.937-1.172l-5.938-.899c-.352-1.093-.82-2.148-1.328-3.203 1.094-1.523 2.265-2.929 3.398-4.453.157-.234.274-.469.274-.742 0-1.094-4.61-5.313-5.625-6.25a1.265 1.265 0 0 0-.821-.313c-.273 0-.546.079-.781.274l-4.609 3.477c-.938-.469-1.914-.899-2.93-1.212l-.898-5.976c-.078-.547-.625-.976-1.172-.976h-7.266c-.547 0-1.015.39-1.172.937-.507 1.914-.703 4.062-.898 6.015a20.469 20.469 0 0 0-3.008 1.25l-4.492-3.515c-.234-.156-.508-.274-.82-.274-1.133 0-5.508 4.727-6.289 5.782a1.19 1.19 0 0 0-.274.781c0 .273.117.547.274.781 1.25 1.485 2.421 2.93 3.515 4.492-.508.977-.937 1.954-1.25 2.969l-6.055.938c-.507.078-.898.664-.898 1.171v7.227c0 .547.391 1.055.938 1.133l5.937.938c.352 1.093.82 2.148 1.367 3.202-1.133 1.524-2.304 2.969-3.437 4.454-.157.234-.274.469-.274.742 0 1.133 4.61 5.312 5.625 6.25.235.195.508.312.821.312.273 0 .586-.078.781-.273l4.609-3.477c.938.469 1.914.899 2.93 1.211l.898 5.977c.078.547.625.976 1.172.976h7.266c.547 0 1.015-.39 1.172-.937.508-1.914.703-4.063.898-6.055a16.654 16.654 0 0 0 3.008-1.211l4.492 3.516c.235.156.508.273.82.273 1.133 0 5.508-4.765 6.29-5.82.195-.195.273-.469.273-.742 0-.313-.117-.547-.273-.781-1.251-1.485-2.422-2.93-3.516-4.492.508-.977.937-1.954 1.25-2.969l6.055-.938c.507-.078.898-.664.898-1.172v-7.226zm25 20.82c0-.586-5.039-1.133-5.82-1.211a10.56 10.56 0 0 0-1.172-2.031c.351-.781 1.992-4.688 1.992-5.391a.338.338 0 0 0-.156-.273c-.469-.274-4.649-2.734-4.844-2.734l-.234.078c-1.328 1.328-2.5 2.851-3.594 4.374-.391-.038-.781-.077-1.172-.077-.391 0-.781.039-1.172.077-.39-.585-3.32-4.452-3.828-4.452-.195 0-4.375 2.499-4.844 2.734a.338.338 0 0 0-.156.273c0 .664 1.641 4.61 1.992 5.391a10.56 10.56 0 0 0-1.172 2.031c-.781.078-5.82.625-5.82 1.211v5.469c0 .586 5.039 1.133 5.82 1.211a9.503 9.503 0 0 0 1.172 2.031c-.351.781-1.992 4.727-1.992 5.39 0 .079.039.196.156.274.469.273 4.649 2.773 4.844 2.773.508 0 3.438-3.906 3.828-4.492.391.039.781.079 1.172.079.391 0 .781-.04 1.172-.079.391.586 3.32 4.492 3.828 4.492.195 0 4.375-2.5 4.844-2.773.117-.078.156-.156.156-.274 0-.703-1.641-4.609-1.992-5.39a9.503 9.503 0 0 0 1.172-2.031c.781-.078 5.82-.625 5.82-1.211v-5.469zm0-40c0-.586-5.039-1.133-5.82-1.211a10.56 10.56 0 0 0-1.172-2.031c.351-.781 1.992-4.688 1.992-5.391a.338.338 0 0 0-.156-.273c-.469-.274-4.649-2.735-4.844-2.735l-.234.079c-1.328 1.328-2.5 2.851-3.594 4.375-.391-.039-.781-.079-1.172-.079-.391 0-.781.04-1.172.079-.39-.587-3.32-4.454-3.828-4.454-.195 0-4.375 2.501-4.844 2.735a.338.338 0 0 0-.156.273c0 .664 1.641 4.61 1.992 5.391a10.56 10.56 0 0 0-1.172 2.031c-.781.078-5.82.625-5.82 1.211v5.469c0 .586 5.039 1.133 5.82 1.211a9.503 9.503 0 0 0 1.172 2.031c-.351.781-1.992 4.727-1.992 5.391 0 .078.039.195.156.273.469.274 4.649 2.773 4.844 2.773.508 0 3.438-3.906 3.828-4.492.391.039.781.079 1.172.079.391 0 .781-.04 1.172-.079.391.586 3.32 4.492 3.828 4.492.195 0 4.375-2.499 4.844-2.773.117-.078.156-.156.156-.273 0-.703-1.641-4.61-1.992-5.391a9.503 9.503 0 0 0 1.172-2.031c.781-.078 5.82-.625 5.82-1.211v-5.469z"/>
</svg>
