<svg xmlns="http://www.w3.org/2000/svg" width="46" height="69">
    <path fill-rule="evenodd" fill="#DF5C64" d="M32.86 20.138c0-4.956-5.848-7.143-10.001-7.143-.759 0-1.428.669-1.428 1.428 0 .759.669 1.429 1.428 1.429 2.367 0 7.144 1.206 7.144 4.286 0 .759.67 1.429 1.429 1.429s1.428-.67 1.428-1.429zm7.144 0c0 2.858-1.161 5.849-3.036 8.037-.848.982-1.831 1.92-2.724 2.947-3.17 3.795-5.848 8.259-6.295 13.304H17.77c-.447-5.045-3.126-9.509-6.296-13.304-.893-1.027-1.875-1.965-2.723-2.947-1.875-2.188-3.036-5.179-3.036-8.037 0-8.929 9.063-14.287 17.144-14.287 8.082 0 17.145 5.358 17.145 14.287zm5.715 0C45.719 7.994 34.155.136 22.859.136 11.564.136 0 7.994 0 20.138c0 4.599 1.518 8.572 4.599 11.966 3.08 3.393 7.143 8.17 7.5 12.948a4.292 4.292 0 0 0-2.098 3.66c0 1.072.402 2.099 1.116 2.858a4.174 4.174 0 0 0-1.116 2.857c0 1.474.759 2.813 2.009 3.617-.357.625-.58 1.384-.58 2.098 0 2.902 2.277 4.286 4.866 4.286 1.161 2.59 3.751 4.287 6.563 4.287 2.813 0 5.403-1.697 6.563-4.287 2.59 0 4.867-1.384 4.867-4.286 0-.714-.223-1.473-.58-2.098 1.25-.804 2.009-2.143 2.009-3.617a4.174 4.174 0 0 0-1.116-2.857 4.174 4.174 0 0 0 1.116-2.858 4.29 4.29 0 0 0-2.099-3.66c.358-4.778 4.42-9.555 7.501-12.948 3.081-3.394 4.599-7.367 4.599-11.966z"/>
</svg>
