<svg xmlns="http://www.w3.org/2000/svg" width="65" height="65">
    <path fill-rule="evenodd" fill="#C8535A" d="m46.385 23.537-4.18-4.18L53.65 7.912l4.18 4.18-11.445 11.445zm17.46-11.445c0-.665-.234-1.289-.703-1.758l-7.734-7.735c-.469-.468-1.094-.703-1.758-.703-.664 0-1.289.235-1.758.703L1.658 52.834c-.469.469-.703 1.093-.703 1.758 0 .664.234 1.289.703 1.757l7.734 7.735c.469.469 1.094.703 1.758.703.664 0 1.289-.234 1.758-.703L63.142 13.85c.469-.469.703-1.094.703-1.758zM11.072 4.67 9.9.842 8.728 4.67 4.9 5.841l3.828 1.172L9.9 10.842l1.172-3.829L14.9 5.841 11.072 4.67zm13.672 6.328L22.4 3.342l-2.344 7.656-7.656 2.343 7.656 2.344 2.344 7.657 2.344-7.657 7.656-2.344-7.656-2.343zM61.072 29.67 59.9 25.841l-1.172 3.829-3.828 1.172 3.828 1.171 1.172 3.829 1.172-3.829 3.828-1.171-3.828-1.172zm-25-25L34.9.842 33.728 4.67 29.9 5.841l3.828 1.172 1.172 3.829 1.172-3.829L39.9 5.841 36.072 4.67z"/>
</svg>
